<svg xmlns="http://www.w3.org/2000/svg" width="28" height="24.183" viewBox="0 0 28 24.183">
  <path id="twitter" d="M27,3a12.707,12.707,0,0,1-3.711,1.871A5.177,5.177,0,0,0,17.406,3.35,5.48,5.48,0,0,0,14,8.542V9.765A12.467,12.467,0,0,1,3.364,4.225s-4.727,11.006,5.909,15.9A13.421,13.421,0,0,1,1,22.569c10.636,6.115,23.636,0,23.636-14.064a5.688,5.688,0,0,0-.095-1.015A9.528,9.528,0,0,0,27,3Z" transform="translate(0 -1.896)" fill="none" stroke="#d6d6d6" stroke-linecap="round" stroke-linejoin="round" stroke-width="2"/>
</svg>
